{"title":"IMPACT.WRESTLING.2017.07.06.HDTV.XviD-FICEK9","magnet":"magnet:?xt=urn:btih:26e50360c8abf2e7cc894cd38e72b1eaf2c942ef&dn=IMPACT.WRESTLING.2017.07.06.HDTV.XviD-FICEK9&tr=udp%3A%2F%2Ftracker.leechers-paradise.org%3A6969&tr=udp%3A%2F%2Fzer0day.ch%3A1337&tr=udp%3A%2F%2Fopen.demonii.com%3A1337&tr=udp%3A%2F%2Ftracker.coppersurfer.tk%3A6969&tr=udp%3A%2F%2Fexodus.desync.com%3A6969","uploader":"FICEK9","categoryP":"video","categoryS":"tv_shows","size":"939417247","seeders":"1","leechers":"0","description":"   General\r\n      Complete name : IMPACT.WRESTLING.2017.07.06.HDTV.XviD-FICEK9.avi\r\n      Format : AVI\r\n      Format/Info : Audio Video Interleave\r\n      File size : 896 MiB\r\n      Duration : 1 h 23 min\r\n      Overall bit rate mode : Variable\r\n      Overall bit rate : 1 497 kb/s\r\n      Writing application : Lavf57.41.100\r\n   Video #0\r\n      ID : 0\r\n      Format : xvid\r\n      Codec ID : xvid\r\n      Duration : 1 h 23 min\r\n      Bit rate : 1 363 kb/s\r\n      Width : 624 pixels\r\n      Height : 352 pixels\r\n      Display aspect ratio : 16:9\r\n      Frame rate : 29.970 FPS\r\n      Scan type : Progressive\r\n      Bits/(Pixel*Frame) : 0.207\r\n      Stream size : 816 MiB (91%)\r\n   Audio #1\r\n      ID : 1\r\n      Format : MPEG Audio\r\n      Format version : Version 1\r\n      Format profile : Layer 3\r\n      Mode : Joint stereo\r\n      Codec ID : 55\r\n      Codec ID/Hint : MP3\r\n      Duration : 1 h 23 min\r\n      Bit rate mode : Variable\r\n      Bit rate : 120 kb/s\r\n      Channel(s) : 2 channels\r\n      Sampling rate : 48.0 kHz\r\n      Compression mode : Lossy\r\n      Stream size : 71.9 MiB (8%)\r\n      Alignment : Aligned on interleaves\r\n      Interleave, duration : 24  ms (0.72 video frame)","last_updated":"2017-08-26T12:00:43.918Z","parsed":{"xt":"urn:btih:26e50360c8abf2e7cc894cd38e72b1eaf2c942ef","dn":"IMPACT.WRESTLING.2017.07.06.HDTV.XviD-FICEK9","tr":["udp://exodus.desync.com:6969","udp://open.demonii.com:1337","udp://tracker.coppersurfer.tk:6969","udp://tracker.leechers-paradise.org:6969","udp://zer0day.ch:1337"],"infoHash":"26e50360c8abf2e7cc894cd38e72b1eaf2c942ef","infoHashBuffer":{"type":"Buffer","data":[38,229,3,96,200,171,242,231,204,137,76,211,142,114,177,234,242,201,66,239]},"name":"IMPACT.WRESTLING.2017.07.06.HDTV.XviD-FICEK9","announce":["udp://exodus.desync.com:6969","udp://open.demonii.com:1337","udp://tracker.coppersurfer.tk:6969","udp://tracker.leechers-paradise.org:6969","udp://zer0day.ch:1337"],"urlList":[]}}